<svg width="50" height="50" viewBox="0 0 50 50" fill="none" xmlns="http://www.w3.org/2000/svg">
<path d="M23.5 19.8542L18.3542 25L23.5 30.1459C23.7057 30.3368 23.856 30.5798 23.9352 30.849C24.0144 31.1183 24.0195 31.4039 23.95 31.6759C23.8805 31.9478 23.7389 32.1959 23.5402 32.3941C23.3415 32.5923 23.0929 32.7333 22.8208 32.8021C22.5492 32.8715 22.2639 32.8665 21.9949 32.7877C21.7258 32.7089 21.4829 32.5592 21.2917 32.3542L15.0417 26.1042C14.7491 25.8112 14.5847 25.4141 14.5847 25C14.5847 24.586 14.7491 24.1888 15.0417 23.8959L21.2917 17.6459C21.4827 17.4402 21.7256 17.2898 21.9949 17.2106C22.2641 17.1314 22.5498 17.1263 22.8217 17.1959C23.0936 17.2654 23.3417 17.407 23.54 17.6057C23.7382 17.8044 23.8791 18.0529 23.9479 18.325C24.0173 18.5966 24.0123 18.8819 23.9335 19.151C23.8547 19.42 23.705 19.6629 23.5 19.8542Z" fill="white"/>
<path d="M7.81246 4.16669H42.1875C44.2 4.16669 45.8333 5.80002 45.8333 7.81252V42.1875C45.8333 43.1545 45.4492 44.0818 44.7655 44.7655C44.0817 45.4492 43.1544 45.8334 42.1875 45.8334H7.81246C6.84552 45.8334 5.91819 45.4492 5.23447 44.7655C4.55074 44.0818 4.16663 43.1545 4.16663 42.1875V7.81252C4.16663 5.80002 5.79996 4.16669 7.81246 4.16669ZM7.29163 7.81252V42.1875C7.29163 42.475 7.52496 42.7084 7.81246 42.7084H31.25V7.29169H7.81246C7.67433 7.29169 7.54185 7.34656 7.44417 7.44424C7.3465 7.54191 7.29163 7.67439 7.29163 7.81252ZM34.375 42.7084H42.1875C42.3256 42.7084 42.4581 42.6535 42.5557 42.5558C42.6534 42.4581 42.7083 42.3257 42.7083 42.1875V7.81252C42.7083 7.67439 42.6534 7.54191 42.5557 7.44424C42.4581 7.34656 42.3256 7.29169 42.1875 7.29169H34.375V42.7084Z" fill="white"/>
</svg>
