<svg width="50" height="50" viewBox="0 0 50 50" fill="none" xmlns="http://www.w3.org/2000/svg">
<path d="M15.0834 30.1437L20.2292 24.9979L15.0834 19.8521C14.8777 19.6611 14.7273 19.4182 14.6481 19.1489C14.5689 18.8796 14.5638 18.594 14.6334 18.3221C14.7029 18.0501 14.8445 17.802 15.0432 17.6038C15.2419 17.4056 15.4904 17.2646 15.7625 17.1958C16.0342 17.1264 16.3195 17.1314 16.5885 17.2102C16.8576 17.289 17.1004 17.4388 17.2917 17.6437L23.5417 23.8937C23.8343 24.1867 23.9987 24.5838 23.9987 24.9979C23.9987 25.412 23.8343 25.8091 23.5417 26.1021L17.2917 32.3521C17.1007 32.5577 16.8578 32.7081 16.5885 32.7873C16.3193 32.8665 16.0336 32.8716 15.7617 32.8021C15.4898 32.7325 15.2416 32.591 15.0434 32.3922C14.8452 32.1935 14.7043 31.945 14.6354 31.6729C14.5661 31.4013 14.571 31.116 14.6498 30.8469C14.7286 30.5779 14.8784 30.335 15.0834 30.1437Z" fill="white"/>
<path d="M7.81246 4.16669H42.1875C44.2 4.16669 45.8333 5.80002 45.8333 7.81252V42.1875C45.8333 43.1545 45.4492 44.0818 44.7655 44.7655C44.0817 45.4492 43.1544 45.8334 42.1875 45.8334H7.81246C6.84552 45.8334 5.91819 45.4492 5.23447 44.7655C4.55074 44.0818 4.16663 43.1545 4.16663 42.1875V7.81252C4.16663 5.80002 5.79996 4.16669 7.81246 4.16669ZM7.29163 7.81252V42.1875C7.29163 42.475 7.52496 42.7084 7.81246 42.7084H31.25V7.29169H7.81246C7.67433 7.29169 7.54185 7.34656 7.44417 7.44424C7.3465 7.54191 7.29163 7.67439 7.29163 7.81252ZM34.375 42.7084H42.1875C42.3256 42.7084 42.4581 42.6535 42.5557 42.5558C42.6534 42.4581 42.7083 42.3257 42.7083 42.1875V7.81252C42.7083 7.67439 42.6534 7.54191 42.5557 7.44424C42.4581 7.34656 42.3256 7.29169 42.1875 7.29169H34.375V42.7084Z" fill="white"/>
</svg>
